<svg width="476" height="564" viewBox="0 0 476 564" fill="none" xmlns="http://www.w3.org/2000/svg">
<path fill-rule="evenodd" clip-rule="evenodd" d="M365.094 451.338C362.408 478.642 313.085 497.258 247.3 498.844C247.231 498.844 247.093 498.844 247.024 498.844C231.318 499.188 214.648 498.637 197.426 496.982C162.432 493.604 130.469 486.226 104.706 476.435C94.2356 472.505 84.8672 468.161 76.6698 463.542C53.5242 450.442 40.2982 435.135 41.7448 419.897C44.7757 388.802 108.288 369.013 187.782 372.737C194.878 373.081 202.111 373.564 209.412 374.322C245.095 377.77 277.678 385.423 303.648 395.421C342.706 410.383 367.092 430.929 365.094 451.338Z" fill="#1C2628" stroke="#1C2628" stroke-width="2.13" stroke-linecap="round" stroke-linejoin="round"/>
<path d="M381.007 430.171C389.411 440.513 390.237 449.545 389.755 461.129C388.171 498.361 337.678 506.428 309.503 514.771" stroke="#1C2628" stroke-width="2.13" stroke-linecap="round" stroke-linejoin="round"/>
<path d="M99.8842 358.878C59.2417 365.704 10.4017 392.387 25.2122 440.927" stroke="#1C2628" stroke-width="2.13" stroke-linecap="round" stroke-linejoin="round"/>
<path d="M280.296 461.749C282.431 458.785 282.087 460.715 279.607 461.267C270.721 463.266 261.834 465.61 253.017 467.955C241.858 470.919 232.351 478.159 222.087 483.399" stroke="#1C2628" stroke-width="2.13" stroke-linecap="round" stroke-linejoin="round"/>
<path fill-rule="evenodd" clip-rule="evenodd" d="M334.853 357.361C375.771 313.716 270.376 108.87 205.073 148.309C182.478 158.858 173.247 176.716 164.223 197.745C142.318 278.208 46.2912 251.318 43.398 338.193C37.956 464.99 291.042 450.648 334.853 357.361Z" fill="#F3A13B"/>
<path fill-rule="evenodd" clip-rule="evenodd" d="M98.1621 208.708C113.179 206.295 127.507 204.778 123.374 226.152C122.823 229.048 118.69 247.112 104.155 249.112C74.6721 253.869 68.5413 212.776 98.1621 208.708Z" fill="#F3A13B"/>
<path fill-rule="evenodd" clip-rule="evenodd" d="M142.662 204.019C136.325 208.501 124.27 202.296 128.265 193.953C131.365 176.509 165.532 196.159 142.662 204.019Z" fill="#F3A13B"/>
<path d="M148.518 303.236C150.653 308.27 152.857 313.785 151.48 319.095C150.377 323.507 147.002 327.024 143.627 330.057C141.905 331.574 140.113 333.16 137.909 333.781C135.705 334.47 133.018 334.056 131.572 332.264C129.987 330.333 130.401 327.368 131.572 325.162C132.467 323.438 133.983 321.921 135.843 321.37C139.08 320.405 142.524 322.818 143.833 325.92C145.142 329.023 144.798 332.54 144.109 335.849C141.285 349.363 133.638 361.222 126.13 372.806" stroke="#1C2628" stroke-width="2.13" stroke-linecap="round" stroke-linejoin="round"/>
<path fill-rule="evenodd" clip-rule="evenodd" d="M109.184 287.585C117.175 288.55 127.232 275.381 115.452 274.071C111.801 275.381 104.293 285.93 107.944 287.309" fill="#FAF6EB"/>
<path fill-rule="evenodd" clip-rule="evenodd" d="M188.265 198.779C179.654 200.572 176.21 208.363 180.412 216.499C181.583 218.774 188.471 228.703 194.671 227.6C197.633 227.048 207.07 228.358 205.21 205.812C204.039 196.986 199.768 196.435 188.265 198.779Z" fill="#97DECE" stroke="#1C2628" stroke-width="2.13" stroke-linecap="round" stroke-linejoin="round"/>
<path fill-rule="evenodd" clip-rule="evenodd" d="M318.734 329.368C308.332 364.256 255.979 444.512 252.259 457.819L251.708 455.544C239.929 459.681 172.352 460.301 150.24 438.996C148.035 436.859 146.313 434.584 145.073 431.964L163.397 386.32C162.295 387.905 151.48 378.321 164.086 351.845C167.53 344.606 174.694 325.024 174.694 325.024C175.245 322.059 176.83 310.545 178.758 296.479C178.483 295.997 178.414 295.721 178.414 295.721C172.352 291.584 149.62 293.239 144.453 275.45C143.696 272.761 143.282 269.589 143.42 265.866C143.558 261.729 146.107 259.799 149 258.971C151.824 258.144 154.993 258.282 156.577 258.42C165.119 258.902 173.454 262.074 181.376 265.384C181.927 265.59 182.409 265.866 182.96 266.073C185.647 246.698 188.196 229.875 189.022 228.979C190.4 227.462 191.709 225.945 193.018 224.497C197.151 219.946 201.353 216.499 208.448 219.119C213.063 220.774 217.541 222.566 221.812 224.635C230.836 228.979 239.033 234.495 245.577 242.699C252.053 250.766 257.908 259.454 262.317 268.762C266.312 277.174 268.93 286.344 270.583 295.445C271.754 301.651 272.581 308.132 272.167 314.475C272.098 316.061 271.892 317.578 271.616 319.164C270.376 326.127 268.654 332.953 266.725 339.71L318.734 329.368Z" fill="#97DECE" stroke="#1C2628" stroke-width="2.13" stroke-linecap="round" stroke-linejoin="round"/>
<path fill-rule="evenodd" clip-rule="evenodd" d="M150.24 438.996C148.035 436.859 146.313 434.583 145.073 431.963L163.397 386.319C162.295 387.905 151.48 378.321 164.086 351.845C167.53 344.605 174.694 325.024 174.694 325.024C175.245 322.059 176.83 310.545 178.758 296.479C178.483 295.997 178.414 295.721 178.414 295.721C172.352 291.584 149.62 293.239 144.453 275.45C149.482 276.346 154.855 278.001 160.573 279.725C172.008 283.172 178.896 285.241 182.547 291.653C186.818 299.099 181.514 303.236 185.027 320.818C186.06 326.127 187.093 328.334 188.402 336.125C189.918 345.088 190.607 349.639 189.298 353.017C185.991 361.36 176.278 362.187 176.416 367.427C176.485 370.53 179.929 371.771 183.443 375.081C183.443 375.081 192.811 383.768 193.569 399.558C194.533 419.484 168.219 442.513 150.24 438.996Z" fill="#FAF6EB"/>
<path fill-rule="evenodd" clip-rule="evenodd" d="M272.236 314.544C267.759 318.336 262.868 321.301 257.564 322.956C243.166 327.506 228.287 321.784 215.543 316.819C205.486 312.889 193.362 308.27 190.262 297.996C188.54 292.274 190.744 288.688 187.438 284.482C183.649 279.794 178.621 281.586 169.665 277.725C160.848 273.933 155.682 267.797 153.753 265.452C152.237 263.66 150.584 261.385 149.069 258.902C151.893 258.075 155.062 258.213 156.646 258.351C165.188 258.833 173.523 262.005 181.445 265.315C181.996 265.521 182.478 265.797 183.029 266.004C185.716 246.63 188.265 229.806 189.091 228.91C190.469 227.393 191.778 225.876 193.087 224.428C202.317 223.808 212.168 223.876 221.95 224.566C230.974 228.91 239.171 234.426 245.715 242.63C252.19 250.697 258.046 259.385 262.454 268.693C266.45 277.105 269.067 286.275 270.721 295.376C271.823 301.719 272.718 308.201 272.236 314.544Z" fill="#1C2628" stroke="#1C2628" stroke-width="2.13" stroke-linecap="round" stroke-linejoin="round"/>
<path fill-rule="evenodd" clip-rule="evenodd" d="M163.672 437.617C166.497 435.066 169.252 432.377 171.801 429.55C150.377 416.588 150.171 406.108 150.171 406.108L104.706 476.366C126.887 484.778 153.684 491.397 182.96 495.258C178.207 482.848 170.905 471.057 161.606 461.06C156.095 454.165 158.162 443.133 163.672 437.617Z" fill="#FAF6EB"/>
<path fill-rule="evenodd" clip-rule="evenodd" d="M192.122 439.617C183.787 436.169 177.174 432.791 171.801 429.55C169.321 432.377 166.566 435.066 163.672 437.617C158.162 443.133 156.095 454.165 161.606 461.06C170.974 471.057 178.276 482.848 182.96 495.258C187.713 495.879 192.535 496.43 197.426 496.913C214.579 498.568 231.249 499.188 247.024 498.775C247.093 498.775 247.231 498.775 247.3 498.775L266.656 444.512C266.656 444.581 241.789 460.163 192.122 439.617Z" fill="#FB564C"/>
<path fill-rule="evenodd" clip-rule="evenodd" d="M275.818 290.963C277.747 285.792 274.992 277.656 273.476 272.485C265.003 244.078 241.031 229.806 216.99 215.878C208.655 211.052 203.97 210.225 196.462 223.876C192.467 231.116 189.849 248.905 195.291 253.869C211.479 268.417 231.525 279.863 242.546 298.203C244.2 300.961 252.604 325.783 252.604 325.783C252.604 325.783 257.977 319.508 264.59 313.785C270.101 308.959 271.685 308.614 272.512 307.442L275.818 290.963Z" fill="#F7AA9A"/>
<path d="M349.457 183.266C347.459 182.231 346.633 179.818 347.666 177.75L347.804 177.543C348.837 175.543 351.248 174.716 353.315 175.75C355.312 176.784 356.139 179.198 355.106 181.266L354.968 181.473C353.866 183.541 351.455 184.3 349.457 183.266ZM352.488 177.405C351.386 176.853 350.077 177.267 349.457 178.37L349.319 178.577C348.768 179.68 349.182 180.99 350.284 181.611C351.386 182.162 352.695 181.749 353.315 180.646L353.452 180.439C354.004 179.267 353.59 177.957 352.488 177.405Z" fill="#1C2628" stroke="#1C2628" stroke-width="2.13" stroke-linecap="round" stroke-linejoin="round"/>
<path d="M345.117 191.746C343.12 190.712 342.293 188.299 343.326 186.23L343.464 186.024C344.497 184.024 346.908 183.197 348.975 184.231C351.041 185.265 351.799 187.678 350.766 189.747L350.628 189.954C349.526 192.022 347.115 192.781 345.117 191.746ZM348.079 185.886C346.977 185.334 345.668 185.748 345.048 186.851L344.911 187.058C344.36 188.161 344.773 189.471 345.875 190.092C346.977 190.712 348.286 190.229 348.906 189.126L349.044 188.919C349.664 187.747 349.25 186.437 348.079 185.886Z" fill="#1C2628" stroke="#1C2628" stroke-width="2.13" stroke-linecap="round" stroke-linejoin="round"/>
<path d="M352.626 172.923C349.664 171.406 348.562 167.752 350.008 164.856L355.037 155.134C356.552 152.17 360.134 151.067 363.096 152.514C366.058 154.031 367.161 157.686 365.714 160.581L360.685 170.303C359.17 173.268 355.519 174.44 352.626 172.923ZM362.27 154.169C360.203 153.135 357.723 153.893 356.69 155.962L351.661 165.684C350.628 167.752 351.386 170.234 353.452 171.268C355.519 172.303 357.999 171.544 359.032 169.476L364.061 159.754C365.094 157.686 364.336 155.203 362.27 154.169Z" fill="#1C2628" stroke="#1C2628" stroke-width="2.13" stroke-linecap="round" stroke-linejoin="round"/>
<path fill-rule="evenodd" clip-rule="evenodd" d="M387.275 115.075L284.498 314.82C281.398 320.887 273.958 323.231 267.896 320.129L178.001 273.795C171.939 270.693 169.597 263.246 172.696 257.179L230.974 143.827C233.04 143.689 235.107 143.551 237.242 143.413L177.725 259.178C175.934 262.695 177.312 267.038 180.825 268.9L270.032 314.82C271.065 315.371 272.167 315.647 273.338 315.647C276.025 315.647 278.505 314.13 279.745 311.717L382.109 112.731C382.453 112.042 382.66 111.352 382.798 110.663C382.867 110.663 382.935 110.594 383.004 110.594C384.933 109.766 386.793 108.87 388.653 108.043C388.86 110.318 388.446 112.8 387.275 115.075Z" fill="#1C2628" stroke="#1C2628" stroke-width="2.13" stroke-linecap="round" stroke-linejoin="round"/>
<path fill-rule="evenodd" clip-rule="evenodd" d="M382.729 110.663C382.591 111.352 382.384 112.042 382.04 112.731L279.745 311.717C278.505 314.13 276.025 315.647 273.338 315.647C272.167 315.647 271.065 315.371 270.032 314.82L180.825 268.9C177.312 267.107 175.934 262.763 177.725 259.178L237.242 143.482C251.088 142.517 266.174 140.793 281.949 138.242C321.489 131.761 357.517 121.625 382.729 110.663Z" fill="#FAF6EB"/>
<path fill-rule="evenodd" clip-rule="evenodd" d="M325.623 70.6035C325.623 70.6035 323.694 74.3957 323.556 77.5673C323.556 77.7742 323.556 77.9121 323.556 78.1189C323.625 81.0148 325.416 83.5659 327.965 84.8759L334.578 88.2544C336.438 89.2197 338.573 89.4265 340.502 88.806C341.329 88.5302 342.155 88.1854 342.913 87.7028C345.599 85.9101 347.39 82.1869 347.39 82.1869L325.623 70.6035Z" fill="#1C2628" stroke="#1C2628" stroke-width="2.13" stroke-linecap="round" stroke-linejoin="round"/>
<path fill-rule="evenodd" clip-rule="evenodd" d="M331.685 280.759C332.373 284.482 325.071 317.577 315.703 338.055L212.581 357.637C212.581 357.637 215.268 347.501 220.847 336.263C225.807 326.265 232.971 315.44 242.546 310.062C270.79 294.204 292.351 301.719 292.351 301.719C292.351 301.719 293.729 289.446 302.477 273.864C302.477 273.864 302.546 271.244 302.959 267.314C303.786 259.454 305.99 246.629 311.845 240.769C324.383 228.22 334.302 230.702 333.613 232.633C334.164 235.253 332.304 278.897 331.685 280.759Z" fill="#97DECE" stroke="#1C2628" stroke-width="2.13" stroke-linecap="round" stroke-linejoin="round"/>
<path fill-rule="evenodd" clip-rule="evenodd" d="M171.87 217.119C163.121 218.981 159.608 226.841 163.879 235.184C165.05 237.459 172.076 247.664 178.414 246.491C181.376 245.94 191.02 247.25 189.16 224.29C187.92 215.327 183.511 214.706 171.87 217.119Z" fill="#97DECE" stroke="#1C2628" stroke-width="2.13" stroke-linecap="round" stroke-linejoin="round"/>
<path d="M247.024 498.844C231.318 499.188 214.648 498.637 197.426 496.982C162.432 493.604 130.469 486.226 104.706 476.435" stroke="#1C2628" stroke-width="2.13" stroke-linecap="round" stroke-linejoin="round"/>
<path d="M151.755 410.934C151.755 410.934 154.855 420.932 171.801 429.55C188.747 438.169 206.313 449.821 231.043 449.821" stroke="#1C2628" stroke-width="2.13" stroke-linecap="round" stroke-linejoin="round"/>
<path d="M324.176 234.977C324.176 234.977 321.627 250.559 324.176 253.042C326.725 255.593 330.445 255.593 330.445 255.593" stroke="#1C2628" stroke-width="2.13" stroke-linecap="round" stroke-linejoin="round"/>
<path fill-rule="evenodd" clip-rule="evenodd" d="M293.109 313.578C282.913 318.405 277.747 310.338 264.59 313.785C248.402 318.129 247.024 332.884 233.109 336.401C229.871 337.228 225.807 337.504 220.779 336.263C225.738 326.265 232.902 315.44 242.478 310.062C270.721 294.204 292.282 301.719 292.282 301.719C292.282 301.719 293.66 289.446 302.408 273.864C302.408 273.864 302.477 271.244 302.89 267.314C305.921 271.658 308.057 276.622 308.677 282C309.986 294.204 303.648 308.545 293.109 313.578Z" fill="#FAF6EB"/>
<path fill-rule="evenodd" clip-rule="evenodd" d="M203.557 365.98C202.662 360.464 214.717 354.189 224.843 348.949C247.231 337.366 271.41 333.229 274.716 332.677C288.424 330.471 297.517 330.609 305.921 322.887C311.019 318.267 316.874 309.511 318.665 310.131C321.558 311.165 319.63 329.85 314.05 341.71C301.237 369.082 260.112 373.84 252.673 374.736C231.18 377.425 204.797 373.771 203.557 365.98Z" fill="#FB564C"/>
<path d="M370.674 207.329L349.87 221.187" stroke="#1C2628" stroke-width="2.13" stroke-linecap="round" stroke-linejoin="round"/>
<path d="M371.914 228.979L350.284 231.461" stroke="#1C2628" stroke-width="2.13" stroke-linecap="round" stroke-linejoin="round"/>
<path d="M348.63 242.079L368.607 263.729" stroke="#1C2628" stroke-width="2.13" stroke-linecap="round" stroke-linejoin="round"/>
<path d="M349.457 264.142L359.239 276.001" stroke="#1C2628" stroke-width="2.13" stroke-linecap="round" stroke-linejoin="round"/>
<path d="M152.444 444.995C149.964 450.787 148.311 457.406 150.446 463.266C152.031 467.748 155.613 471.195 158.644 474.919C161.675 478.642 164.292 483.192 163.535 487.95" stroke="#1C2628" stroke-width="2.13" stroke-linecap="round" stroke-linejoin="round"/>
<path d="M163.328 471.885C165.326 476.022 169.597 478.642 171.456 482.779C172.352 484.778 172.628 487.053 172.628 489.26" stroke="#1C2628" stroke-width="2.13" stroke-linecap="round" stroke-linejoin="round"/>
<path d="M185.165 396.11C185.165 399.282 185.165 402.522 184.614 405.694C184.063 408.866 182.891 411.968 180.756 414.313C178.483 416.864 175.314 418.449 172.283 419.966" stroke="#1C2628" stroke-width="2.13" stroke-linecap="round" stroke-linejoin="round"/>
<path d="M187.645 411.831C186.749 414.589 184.889 417.071 182.478 418.725" stroke="#1C2628" stroke-width="2.13" stroke-linecap="round" stroke-linejoin="round"/>
<path d="M169.597 235.942C169.252 232.909 168.908 229.737 170.079 226.979C171.25 224.221 174.556 222.015 177.381 223.256" stroke="#1C2628" stroke-width="2.13" stroke-linecap="round" stroke-linejoin="round"/>
<path d="M305.646 328.885C291.111 353.086 277.334 377.839 264.383 402.936" stroke="#1C2628" stroke-width="2.13" stroke-linecap="round" stroke-linejoin="round"/>
<path d="M286.358 377.494L258.803 430.516" stroke="#1C2628" stroke-width="2.13" stroke-linecap="round" stroke-linejoin="round"/>
<path d="M320.663 294.411C316.323 312.958 317.494 325.851 301.168 351.569" stroke="#1C2628" stroke-width="2.13" stroke-linecap="round" stroke-linejoin="round"/>
<path fill-rule="evenodd" clip-rule="evenodd" d="M419.169 82.5317C418.136 90.4608 406.839 99.3552 388.584 107.974C386.793 108.801 384.864 109.698 382.936 110.525C382.867 110.525 382.798 110.594 382.729 110.594C357.517 121.557 321.421 131.761 281.949 138.173C266.174 140.724 251.088 142.448 237.242 143.413C235.107 143.551 233.04 143.689 230.974 143.827C214.234 144.723 199.424 144.517 187.3 143.138C165.326 140.724 152.444 134.657 153.615 125.487C154.786 116.386 169.734 105.836 193.155 96.0457C212.788 87.8408 238.344 80.1185 266.794 74.2579C269.067 73.7753 271.272 73.3616 273.545 72.8789C279.194 71.7758 284.98 70.7415 290.835 69.7762C297.173 68.742 303.373 67.8457 309.366 67.0873C312.672 66.6736 315.91 66.3288 319.078 65.9841C341.053 63.6398 360.754 63.0193 376.805 64.0535C404.014 65.8462 420.478 72.2584 419.169 82.5317Z" fill="#1C2628" stroke="#1C2628" stroke-width="2.13" stroke-linecap="round" stroke-linejoin="round"/>
<path d="M236.278 129.693C234.211 129.83 232.214 129.968 230.216 130.037C223.878 130.382 217.748 130.589 212.03 130.589C203.488 130.589 195.704 130.175 188.816 129.417" stroke="#FAF6EB" stroke-width="2.13" stroke-linecap="round" stroke-linejoin="round"/>
<path d="M382.66 95.563C380.938 96.3904 379.216 97.1488 377.425 97.9762L377.08 98.1141" stroke="#FAF6EB" stroke-width="2.13" stroke-linecap="round" stroke-linejoin="round"/>
<path d="M198.46 108.801C217.61 100.803 242.822 93.3567 269.55 87.7718C271.754 87.3582 273.889 86.8755 276.163 86.4618C281.673 85.4276 287.322 84.3934 293.04 83.4281C299.102 82.4628 305.164 81.5665 311.157 80.808C314.188 80.3943 317.15 80.0496 319.974 79.7738L320.663 79.7049C335.129 78.188 348.63 77.3606 360.961 77.3606C366.265 77.3606 371.363 77.4985 376.047 77.7743" stroke="#FAF6EB" stroke-width="2.13" stroke-linecap="round" stroke-linejoin="round"/>
<path d="M403.739 52.2632C439.008 54.5385 460.432 62.8123 458.641 76.1194C457.332 86.3928 442.59 97.9761 418.963 109.146C416.621 110.249 414.141 111.352 411.661 112.455C411.592 112.524 411.523 112.524 411.454 112.524" stroke="#1C2628" stroke-width="2.13" stroke-linecap="round" stroke-linejoin="round"/>
<path d="M157.886 154.859C129.367 151.687 112.628 143.827 114.144 131.968C115.659 120.109 135.085 106.457 165.394 93.7703C190.882 83.0832 224.085 73.1546 260.939 65.5013C263.832 64.8808 266.794 64.3292 269.687 63.7087C277.058 62.2607 284.567 60.9507 292.144 59.7096C300.342 58.3996 308.401 57.2275 316.254 56.2622" stroke="#1C2628" stroke-width="2.13" stroke-linecap="round" stroke-linejoin="round"/>
<path d="M363.096 522.424C324.451 532.697 285.6 546.418 245.646 544.005" stroke="#1C2628" stroke-width="2.13" stroke-linecap="round" stroke-linejoin="round"/>
<path d="M286.151 213.672C303.842 213.672 318.183 199.318 318.183 181.611C318.183 163.904 303.842 149.55 286.151 149.55C268.46 149.55 254.119 163.904 254.119 181.611C254.119 199.318 268.46 213.672 286.151 213.672Z" fill="#F3A13B"/>
<path d="M264.728 170.303C270.927 158.444 285.6 153.893 297.379 160.168" stroke="#1C2628" stroke-width="2.13" stroke-linecap="round" stroke-linejoin="round"/>
<path d="M270.652 173.406C275.129 164.856 285.738 161.547 294.28 166.097" stroke="#1C2628" stroke-width="2.13" stroke-linecap="round" stroke-linejoin="round"/>
<path d="M286.151 185.954C288.548 185.954 290.491 184.01 290.491 181.611C290.491 179.212 288.548 177.267 286.151 177.267C283.754 177.267 281.811 179.212 281.811 181.611C281.811 184.01 283.754 185.954 286.151 185.954Z" stroke="#1C2628" stroke-width="2.13" stroke-linecap="round" stroke-linejoin="round"/>
<path d="M288.08 204.777L279.4 221.325" stroke="#1C2628" stroke-width="2.13" stroke-linecap="round" stroke-linejoin="round"/>
<path d="M288.08 204.778C286.702 204.088 286.22 202.364 286.909 201.054L288.355 198.365C289.044 196.986 290.766 196.504 292.075 197.193C293.453 197.883 293.935 199.606 293.246 200.916L291.8 203.605C291.111 204.984 289.389 205.467 288.08 204.778Z" stroke="#1C2628" stroke-width="2.13" stroke-linecap="round" stroke-linejoin="round"/>
<path d="M231.8 222.015L280.916 247.043" stroke="#1C2628" stroke-width="2.13" stroke-linecap="round" stroke-linejoin="round"/>
<path d="M252.122 246.56L282.5 262.143" stroke="#1C2628" stroke-width="2.13" stroke-linecap="round" stroke-linejoin="round"/>
<path d="M218.505 229.392L252.122 246.56" stroke="black" stroke-width="6" stroke-linecap="round" stroke-linejoin="round"/>
<path d="M89.3447 332.953C86.176 331.781 82.7317 331.85 79.9074 332.884C78.2541 333.436 76.8075 334.263 75.6365 335.228C75.4298 334.47 75.2921 333.712 75.0854 332.953C74.741 331.505 74.3965 329.988 74.121 328.471C75.4298 327.092 76.6009 325.576 77.6342 323.921C80.2518 320.129 82.0429 315.578 82.2495 310.89C82.3873 306.27 82.3184 301.513 80.5274 297.514C80.1141 296.479 79.6319 295.79 78.8052 294.411C78.5297 293.928 77.9786 292.963 77.2897 292.273C76.6009 291.515 75.3609 291.032 74.121 291.239C71.6411 291.791 70.6078 293.377 69.919 294.549C69.5745 295.169 69.3679 295.721 69.1612 296.41C69.0235 296.755 68.9546 296.962 68.8857 297.238L68.8168 297.445C68.7479 297.651 68.7479 297.651 68.7479 297.72L68.679 298.134C68.1968 300.547 68.4724 302.754 68.7479 304.822C69.0235 306.891 69.299 308.89 69.5057 310.89C69.7812 314.061 70.2634 317.164 70.8834 320.267C69.919 321.646 68.8857 323.025 67.7835 324.266L65.717 326.61C65.0281 327.368 64.3392 328.265 63.5815 329.161C60.7572 332.746 58.5528 336.814 57.3818 341.365C56.1418 345.847 56.624 351.156 59.1728 355.155C61.6527 359.223 65.6481 361.774 69.6434 363.015C73.5699 364.187 77.5653 364.463 81.354 363.911C81.8362 365.842 82.3184 367.772 82.7317 369.565C84.2472 374.322 82.8695 378.804 79.9763 380.459C77.8408 381.631 75.6365 381.217 74.1899 380.459C74.3277 380.459 74.4654 380.459 74.6721 380.459C76.9453 380.39 78.6675 378.459 78.5297 376.184C78.4608 373.909 76.532 372.185 74.2588 372.323C71.9855 372.392 70.2634 374.322 70.4012 376.598C70.4012 376.804 70.4701 376.942 70.4701 377.149C70.6078 377.977 71.0211 378.735 71.5722 379.287C71.71 379.493 71.8478 379.631 72.0544 379.838C72.8122 380.597 73.8455 381.355 75.2921 381.769C76.7387 382.182 78.5297 382.251 80.4585 381.493C82.3184 380.735 84.0405 378.942 84.7294 376.598C85.0738 375.426 85.2805 374.184 85.1427 372.874C85.0049 371.495 84.7294 370.323 84.4539 369.082C84.0405 367.29 83.5583 365.428 83.0761 363.497C86.4515 362.808 89.5514 361.429 92.3068 359.567C95.3378 357.292 97.611 353.982 98.2999 350.328C99.0576 346.674 98.3688 342.882 96.7844 339.779C95.3378 336.676 92.5824 334.125 89.3447 332.953ZM72.33 301.857C72.8122 300.203 73.6388 295.652 76.1876 296.272C77.7719 296.686 78.1853 298.824 78.2541 300.203C78.4608 303.443 77.8408 306.822 76.4631 309.786C75.1543 312.682 73.7766 315.371 72.1922 318.06C71.8478 315.647 71.5722 313.234 71.3656 310.752C71.2278 307.787 71.5722 304.753 72.33 301.857ZM70.8834 359.843C67.5769 358.395 64.6148 356.051 63.0993 352.948C61.5838 349.915 61.5838 346.329 62.8238 342.951C64.0637 339.572 66.4058 336.47 68.9546 333.712C69.5745 333.022 70.1945 332.333 71.0211 331.574L72.1233 330.54C72.3989 330.264 72.6055 330.057 72.8811 329.781C73.1566 330.954 73.4321 332.126 73.6388 333.298C73.8455 334.332 74.121 335.297 74.3277 336.332C72.0544 338.607 70.7456 341.365 70.3323 343.778C69.6434 347.846 70.7456 350.949 71.6411 352.741C72.0544 353.638 72.5366 354.327 72.8122 354.741C73.0877 355.155 73.2944 355.361 73.2944 355.361C73.2944 355.361 72.9499 354.327 72.6055 352.397C72.33 350.535 72.0544 347.639 73.2255 344.537C73.7077 343.295 74.3965 341.985 75.4298 340.813C76.4631 345.019 77.4964 349.156 78.5297 352.948C79.2874 355.913 80.0452 358.809 80.8029 361.498C77.4275 361.774 73.9143 361.222 70.8834 359.843ZM96.2333 350.052C96.0266 353.155 94.2356 356.189 91.4113 358.119C88.9314 359.843 85.9005 360.946 82.6628 361.36C81.9051 358.533 81.0785 355.637 80.1829 352.535C79.0119 348.467 77.8408 344.123 76.6698 339.572C77.9097 338.469 79.4252 337.573 81.2162 337.09C85.2805 335.987 90.378 337.297 93.6845 341.779C95.3378 344.054 96.44 347.019 96.2333 350.052Z" fill="#1C2628" stroke="#1C2628" stroke-width="2.13" stroke-linecap="round" stroke-linejoin="round"/>
<path d="M211.617 263.66L201.422 246.423L221.399 246.147L211.617 263.66Z" fill="#1C2628" stroke="#1C2628" stroke-width="2.13" stroke-linecap="round" stroke-linejoin="round"/>
<path d="M255.635 288.343L275.68 288.137L265.416 270.899L255.635 288.343Z" fill="#1C2628" stroke="#1C2628" stroke-width="2.13" stroke-linecap="round" stroke-linejoin="round"/>
<path d="M237.392 255.183L227.582 272.679L232.688 275.547L242.498 258.052L237.392 255.183Z" fill="#1C2628" stroke="#1C2628" stroke-width="2.1299" stroke-miterlimit="3.9998" stroke-linecap="round" stroke-linejoin="round"/>
<path d="M246.118 260.07L236.308 277.566L241.414 280.434L251.224 262.938L246.118 260.07Z" fill="#1C2628" stroke="#1C2628" stroke-width="2.1299" stroke-miterlimit="3.9998" stroke-linecap="round" stroke-linejoin="round"/>
</svg>
